<?xml version="1.0" encoding="utf-8"?>
<!-- Generator: Adobe Illustrator 24.2.1, SVG Export Plug-In . SVG Version: 6.00 Build 0)  -->
<svg version="1.1" id="Layer_1" xmlns="http://www.w3.org/2000/svg" xmlns:xlink="http://www.w3.org/1999/xlink" x="0px" y="0px"
	 viewBox="0 0 1366 768" style="enable-background:new 0 0 1366 768;" xml:space="preserve">
<style type="text/css">
	.st0{fill:none;stroke:#18BC9C;stroke-width:20;stroke-miterlimit:10;}
	.st1{fill:none;stroke:#00FF00;stroke-width:10;stroke-miterlimit:10;}
	.st2{fill:none;stroke:#DCDDDE;stroke-width:16;stroke-miterlimit:10;}
	.st3{fill:none;stroke:#DCDDDE;stroke-width:9;stroke-miterlimit:10;}
</style>
<polygon class="st0" points="235,376.2 681.4,734.8 1132,379.5 681.4,19.2 "/>
<path class="st1" d="M300,92"/>
<polyline class="st2" points="498,247 498,481 680.5,481 863,481 863,247 "/>
<line class="st2" x1="683" y1="247" x2="680.5" y2="481"/>
<path class="st2" d="M558.4,191.6v234.2c15,0.4,35.2,2.6,57.9,9.9c29.2,9.3,50.8,23.3,64.4,33.7"/>
<path class="st2" d="M791.3,191.6v234.2c-12.5-0.8-32.7-0.4-56,7.3c-26.9,9-45,23.7-54.6,32.7"/>
<polyline class="st2" points="855.3,222.3 855.3,238.5 855.3,477.6 "/>
<polyline class="st2" points="508,222.3 508,238.5 508,477.6 "/>
<path class="st2" d="M498,472c116.4-6.7,234.4-6.9,354.1,0c2.8,0.2,5.5,0.3,8.3,0.5"/>
<path class="st2" d="M680.7,465.8"/>
<line class="st2" x1="508" y1="475.6" x2="855.3" y2="475.6"/>
<path class="st2" d="M508,227.9c7.6-1.1,17.9-2.1,30.1-2c7.7,0,14.6,0.5,20.3,1"/>
<path class="st2" d="M855.3,227.9c-8-1.8-17.3-3.3-27.6-4.1c-13.8-1.1-26.1-0.6-36.4,0.5"/>
<path class="st2" d="M558.4,196.8c17.7,2,43.4,7.1,71.7,20.4c23.3,11,40.8,24.1,52.9,34.7c8-9.8,21.5-23.7,41.5-35.2
	c27.1-15.6,52.7-19.1,66.7-19.9"/>
<line class="st3" x1="835.9" y1="251.1" x2="796" y2="251.1"/>
<line class="st3" x1="835.9" y1="268.7" x2="796" y2="268.7"/>
<line class="st3" x1="835.9" y1="286.9" x2="796" y2="286.9"/>
<line class="st3" x1="835.9" y1="305.4" x2="796" y2="305.4"/>
<line class="st3" x1="835.9" y1="323.1" x2="796" y2="323.1"/>
<line class="st3" x1="835.9" y1="340.5" x2="796" y2="340.5"/>
<line class="st3" x1="835.9" y1="358.7" x2="796" y2="358.7"/>
<line class="st3" x1="835.9" y1="376.6" x2="796" y2="376.7"/>
<line class="st3" x1="835.9" y1="395.1" x2="796" y2="395.1"/>
<line class="st3" x1="835.9" y1="412.7" x2="796" y2="412.7"/>
<line class="st3" x1="835.9" y1="430.6" x2="759.4" y2="430.6"/>
<line class="st3" x1="835.9" y1="448.8" x2="705.5" y2="448.8"/>
<line class="st3" x1="552.4" y1="250.4" x2="523.9" y2="250.4"/>
<line class="st3" x1="552.4" y1="268.3" x2="523.9" y2="268.3"/>
<line class="st3" x1="552.4" y1="286.5" x2="523.9" y2="286.5"/>
<line class="st3" x1="552.4" y1="304.7" x2="523.9" y2="304.7"/>
<line class="st3" x1="552.4" y1="322.9" x2="523.9" y2="322.9"/>
<line class="st3" x1="552.4" y1="340.2" x2="523.9" y2="340.2"/>
<line class="st3" x1="552.4" y1="358.6" x2="523.9" y2="358.6"/>
<line class="st3" x1="552.4" y1="377" x2="523.9" y2="377"/>
<line class="st3" x1="552.4" y1="394.4" x2="523.9" y2="394.4"/>
<line class="st3" x1="555" y1="412.7" x2="523.9" y2="412.7"/>
<line class="st3" x1="646.6" y1="448.8" x2="524.4" y2="448.8"/>
<line class="st3" x1="766" y1="227.8" x2="702.9" y2="262.4"/>
<line class="st3" x1="767.4" y1="246.8" x2="704.3" y2="281.5"/>
<line class="st3" x1="767.4" y1="268" x2="704.3" y2="302.6"/>
<line class="st3" x1="767.1" y1="289.2" x2="704" y2="323.8"/>
<line class="st3" x1="768.1" y1="309.1" x2="705" y2="343.8"/>
<line class="st3" x1="771.2" y1="328.4" x2="708.1" y2="363.1"/>
<line class="st3" x1="769.9" y1="349.9" x2="706.8" y2="384.6"/>
<line class="st3" x1="770.3" y1="369.4" x2="707.2" y2="404.1"/>
<line class="st3" x1="771.4" y1="389.7" x2="708.3" y2="424.4"/>
<line class="st3" x1="588.9" y1="228.1" x2="652" y2="262.8"/>
<line class="st3" x1="587.5" y1="247.2" x2="650.6" y2="281.8"/>
<line class="st3" x1="587.5" y1="268.3" x2="650.6" y2="303"/>
<line class="st3" x1="587.8" y1="289.5" x2="650.9" y2="324.2"/>
<line class="st3" x1="586.7" y1="309.5" x2="649.8" y2="344.1"/>
<line class="st3" x1="583.7" y1="328.8" x2="646.8" y2="363.5"/>
<line class="st3" x1="585" y1="350.3" x2="648.1" y2="385"/>
<line class="st3" x1="584.6" y1="369.8" x2="647.7" y2="404.4"/>
<line class="st3" x1="583.5" y1="390.1" x2="646.6" y2="424.8"/>
<line class="st3" x1="523.9" y1="430.6" x2="581.9" y2="430.6"/>
</svg>
